<svg viewBox="0 0 171.97 6.81" xmlns="http://www.w3.org/2000/svg"><g fill="#4e5346"><path d="m5.51 5.67a3.07 3.07 0 0 1 -2.28 1 3.08 3.08 0 0 1 -2.29-1 3.11 3.11 0 0 1 -.94-2.29 3.08 3.08 0 0 1 .94-2.27 3.11 3.11 0 0 1 2.29-.94 3.1 3.1 0 0 1 2.28.94 3.09 3.09 0 0 1 1 2.27 3.12 3.12 0 0 1 -1 2.29zm-4.24-4.25a2.73 2.73 0 0 0 -.8 2 2.76 2.76 0 0 0 .8 2 2.66 2.66 0 0 0 2 .81 2.68 2.68 0 0 0 2-.81 2.76 2.76 0 0 0 .8-2 2.7 2.7 0 0 0 -.81-2 2.64 2.64 0 0 0 -2.03-.81 2.66 2.66 0 0 0 -1.96.81zm3 3.51a1.55 1.55 0 0 1 -1 .33 1.69 1.69 0 0 1 -1.24-.52 1.86 1.86 0 0 1 -.51-1.38 2 2 0 0 1 .48-1.36 1.52 1.52 0 0 1 1.21-.54 1.83 1.83 0 0 1 .85.19 1.27 1.27 0 0 1 .71 1.12h-.51a1 1 0 0 0 -.26-.55.93.93 0 0 0 -.71-.22 1 1 0 0 0 -.92.57 1.73 1.73 0 0 0 -.18.79 1.72 1.72 0 0 0 .29 1 1 1 0 0 0 .86.41.92.92 0 0 0 .6-.19 1 1 0 0 0 .34-.58h.53a1.45 1.45 0 0 1 -.51.93z"/><path d="m9.13 5.21a2.82 2.82 0 0 1 1.14-1.1l.85-.48a3.86 3.86 0 0 0 .79-.57 1.15 1.15 0 0 0 .36-.83 1.18 1.18 0 0 0 -.33-.88 1.22 1.22 0 0 0 -.88-.35 1.13 1.13 0 0 0 -1.12.62 2.34 2.34 0 0 0 -.19.91h-.75a2.89 2.89 0 0 1 .3-1.34 1.91 1.91 0 0 1 1.77-.88 2 2 0 0 1 1.58.58 2 2 0 0 1 .5 1.3 1.77 1.77 0 0 1 -.54 1.3 5.14 5.14 0 0 1 -1.1.75l-.6.34a3.33 3.33 0 0 0 -.68.45 1.61 1.61 0 0 0 -.55.85h3.44v.74h-4.32a3.57 3.57 0 0 1 .33-1.41z"/><path d="m19.62 1.34a4.52 4.52 0 0 1 .38 2.13 5.06 5.06 0 0 1 -.38 2.12 1.87 1.87 0 0 1 -1.81 1.2 1.8 1.8 0 0 1 -1.69-1 4.48 4.48 0 0 1 -.42-2.19 5.35 5.35 0 0 1 .3-1.84 1.89 1.89 0 0 1 1.85-1.43 1.86 1.86 0 0 1 1.77 1.01zm-.8 4.19a3.85 3.85 0 0 0 .37-2 5.21 5.21 0 0 0 -.26-1.77 1 1 0 0 0 -1-.69 1.06 1.06 0 0 0 -1 .66 4.44 4.44 0 0 0 -.33 1.93 4.67 4.67 0 0 0 .21 1.55 1.12 1.12 0 0 0 2.06.35z"/><path d="m22.91 5.21a2.69 2.69 0 0 1 1.14-1.1l.84-.48a4 4 0 0 0 .8-.57 1.15 1.15 0 0 0 .36-.83 1.18 1.18 0 0 0 -.33-.88 1.24 1.24 0 0 0 -.88-.35 1.15 1.15 0 0 0 -1.13.62 2.18 2.18 0 0 0 -.18.91h-.81a2.76 2.76 0 0 1 .28-1.31 1.89 1.89 0 0 1 1.84-.91 2 2 0 0 1 1.58.58 2 2 0 0 1 .5 1.3 1.8 1.8 0 0 1 -.53 1.3 5.42 5.42 0 0 1 -1.1.75l-.61.34a3.23 3.23 0 0 0 -.68.42 1.63 1.63 0 0 0 -.56.85h3.44v.74h-4.31a3.57 3.57 0 0 1 .34-1.38z"/><path d="m33.4 1.34a4.52 4.52 0 0 1 .42 2.13 5 5 0 0 1 -.39 2.12 1.86 1.86 0 0 1 -1.81 1.2 1.8 1.8 0 0 1 -1.68-1 4.48 4.48 0 0 1 -.46-2.21 5.62 5.62 0 0 1 .27-1.84 1.9 1.9 0 0 1 1.88-1.41 1.88 1.88 0 0 1 1.77 1.01zm-.8 4.19a4 4 0 0 0 .36-2 5 5 0 0 0 -.26-1.77 1 1 0 0 0 -1-.69 1.08 1.08 0 0 0 -1 .66 4.61 4.61 0 0 0 -.32 1.93 5 5 0 0 0 .2 1.55 1.13 1.13 0 0 0 2.07.35z"/><path d="m41.56 4.54a1.77 1.77 0 0 0 .25.89 1.62 1.62 0 0 0 1.47.64 2.41 2.41 0 0 0 .87-.14 1 1 0 0 0 .75-1 .86.86 0 0 0 -.32-.75 3 3 0 0 0 -1-.39l-.85-.19a3.65 3.65 0 0 1 -1.17-.43 1.36 1.36 0 0 1 -.56-1.17 1.91 1.91 0 0 1 .54-1.44 2.31 2.31 0 0 1 1.66-.56 2.8 2.8 0 0 1 1.67.5 1.77 1.77 0 0 1 .69 1.56h-.82a1.6 1.6 0 0 0 -.27-.79 1.52 1.52 0 0 0 -1.3-.51 1.47 1.47 0 0 0 -1.07.33 1 1 0 0 0 -.32.75.76.76 0 0 0 .38.7 5.87 5.87 0 0 0 1.14.35l.88.2a2.72 2.72 0 0 1 1 .41 1.57 1.57 0 0 1 .59 1.32 1.65 1.65 0 0 1 -.77 1.53 3.29 3.29 0 0 1 -1.77.46 2.58 2.58 0 0 1 -1.83-.61 2.12 2.12 0 0 1 -.66-1.66z"/><path d="m49.67.17v4a2.3 2.3 0 0 0 .26 1.17 1.4 1.4 0 0 0 1.33.7 1.54 1.54 0 0 0 1.52-.76 2.36 2.36 0 0 0 .22-1.12v-4h.88v3.63a4.06 4.06 0 0 1 -.32 1.83 2.71 2.71 0 0 1 -4.46 0 4.2 4.2 0 0 1 -.32-1.83v-3.62z"/><path d="m61.37.35a2.31 2.31 0 0 1 1.16 1.77h-.87a1.55 1.55 0 0 0 -.64-1 2.19 2.19 0 0 0 -1.22-.35 1.89 1.89 0 0 0 -1.48.67 2.94 2.94 0 0 0 -.6 2 3.25 3.25 0 0 0 .49 1.87 1.82 1.82 0 0 0 1.62.69 2.09 2.09 0 0 0 1.42-.5 2.19 2.19 0 0 0 .57-1.65h-2v-.68h2.84v3.45h-.57l-.21-.83a3.35 3.35 0 0 1 -.77.68 2.84 2.84 0 0 1 -1.44.32 2.75 2.75 0 0 1 -1.94-.74 3.56 3.56 0 0 1 -.89-2.56 3.7 3.7 0 0 1 .85-2.58 2.77 2.77 0 0 1 2.13-.91 3.28 3.28 0 0 1 1.55.35z"/><path d="m66 .17h.88v6.45h-.88z"/><path d="m69.63.17h1l1.85 3.1 1.88-3.1h1l-2.42 3.83v2.6h-.87v-2.6z"/><path d="m79.12.17h1l2.35 6.45h-1l-.66-1.93h-2.53l-.7 1.93h-.89zm1.43 3.83-1-2.86-1.02 2.86z"/><path d="m85.1.17h1.26l1.85 5.45 1.85-5.45h1.24v6.45h-.83v-4.46c0-.31 0-.63 0-1l-1.83 5.46h-.87l-1.86-5.44v.2.72s0 .56 0 .71v3.81h-.81z"/><path d="m96.38.17h1l2.34 6.45h-.95l-.67-1.93h-2.55l-.7 1.93h-.85zm1.44 3.83-1-2.86-1.02 2.86z"/><path d="m106.69.17h4.48v.83h-3.6v2h3.17v.77h-3.17v2.85h-.88z"/><path d="m114.83.17v4a2.3 2.3 0 0 0 .27 1.17 1.38 1.38 0 0 0 1.32.7 1.57 1.57 0 0 0 1.58-.77 2.49 2.49 0 0 0 .22-1.11v-4h.88v3.63a4.2 4.2 0 0 1 -.32 1.83 2.71 2.71 0 0 1 -4.46 0 4.06 4.06 0 0 1 -.32-1.83v-3.62z"/><path d="m122.33.17h2.94a2.92 2.92 0 0 1 1.19.21 1.53 1.53 0 0 1 .89 1.53 1.74 1.74 0 0 1 -.24 1 1.76 1.76 0 0 1 -.67.59 1.26 1.26 0 0 1 .57.4 1.49 1.49 0 0 1 .22.82v.86a2.92 2.92 0 0 0 .06.55.52.52 0 0 0 .28.4v.14h-1.07a.52.52 0 0 1 -.07-.21 3.25 3.25 0 0 1 0-.51v-1.08a.91.91 0 0 0 -.53-.87 1.78 1.78 0 0 0 -.76-.12h-1.93v2.74h-.88zm2.84 3a1.65 1.65 0 0 0 1-.24 1 1 0 0 0 .35-.89 1 1 0 0 0 -.49-.94 1.56 1.56 0 0 0 -.7-.13h-2.07v2.2z"/><path d="m130.56.17h1l3.22 5.21v-5.21h.83v6.45h-1l-3.27-5.21v5.21h-.83z"/><path d="m139 .17h.88v6.45h-.88z"/><path d="m147.86.17v.77h-2.18v5.68h-.88v-5.68h-2.17v-.77z"/><path d="m151.44.17v4a2.3 2.3 0 0 0 .27 1.17 1.39 1.39 0 0 0 1.29.66 1.56 1.56 0 0 0 1.52-.76 2.36 2.36 0 0 0 .22-1.11v-4h.88v3.66a4.2 4.2 0 0 1 -.32 1.83 2.71 2.71 0 0 1 -4.46 0 4.2 4.2 0 0 1 -.32-1.83v-3.62z"/><path d="m158.94.17h2.94a2.92 2.92 0 0 1 1.19.21 1.54 1.54 0 0 1 .9 1.53 1.74 1.74 0 0 1 -.24 1 1.84 1.84 0 0 1 -.67.59 1.29 1.29 0 0 1 .56.4 1.49 1.49 0 0 1 .22.82v.86a2.92 2.92 0 0 0 .06.55.55.55 0 0 0 .28.4v.14h-1.07a.73.73 0 0 1 -.07-.21c0-.09 0-.26 0-.51l-.04-1.13a.93.93 0 0 0 -.45-.85 1.87 1.87 0 0 0 -.77-.12h-1.93v2.77h-.88zm2.84 3a1.65 1.65 0 0 0 .95-.24 1 1 0 0 0 .35-.89 1 1 0 0 0 -.49-.94 1.53 1.53 0 0 0 -.7-.13h-2.07v2.2z"/><path d="m167.22.17h4.68v.83h-3.83v2h3.54v.75h-3.54v2.1h3.93v.77h-4.75z"/></g></svg>