<svg viewBox="0 0 200 130.65" xmlns="http://www.w3.org/2000/svg"><g fill="#4e5346"><path d="m95.64 0h-25.92v2.93l-2.9-2.93v19.22h2.92l-2.92 2.9v41.34l2.9-2.93v2.93h25.92v-2.93l2.91 2.93v-41.34l-2.93-2.9h2.93v-19.22l-2.91 2.93z"/><path d="m101.45 0h31.73v7.51h-31.73z"/><path d="m101.45 10.41h31.73v19.22h-31.73z"/><path d="m101.45 32.53h31.73v30.92h-31.73z"/><path d="m49.53 129.26c0 .85-.75 1.38-1.77 1.38a3.14 3.14 0 0 1 -1.32-.23l-.09-1h.28l.07.2a1 1 0 0 0 1.11.72c.63 0 1.06-.31 1.06-.85s-.26-.76-1-1c-.93-.31-1.41-.63-1.41-1.46s.69-1.31 1.59-1.31a2.73 2.73 0 0 1 1.23.23l.09 1h-.27l-.07-.2a.94.94 0 0 0 -1-.72.79.79 0 0 0 -.88.79c0 .53.26.72.91.94 1.1.38 1.47.72 1.47 1.51z"/><path d="m56.49 126.05h-.25c-.34 0-.42.18-.42.9v1.93c0 1.07-.71 1.73-2 1.73s-2-.62-2-1.66v-2c0-.7-.08-.86-.41-.9h-.26v-.27h1 1.11v.27h-.29c-.4 0-.47.22-.47.9v1.82a1.25 1.25 0 0 0 1.4 1.41c.88 0 1.45-.42 1.45-1.21v-2c0-.68-.08-.85-.48-.9h-.28v-.27h1 .9z"/><path d="m62.76 128.77h-.22c-.34 0-.42.23-.42.7 0 .38.14.51.42.59v.18a4.61 4.61 0 0 1 -1.85.37 2.41 2.41 0 0 1 -2.69-2.44 2.47 2.47 0 0 1 2.69-2.47 3 3 0 0 1 1.55.37l.09 1h-.26l-.09-.2a1.29 1.29 0 0 0 -1.39-.9 1.84 1.84 0 0 0 -1.78 2.08c0 1.5.69 2.26 2 2.26.54 0 .74-.16.74-.64v-.09c0-.58-.09-.77-.48-.81h-.28v-.27h2z"/><path d="m66.52 130.57h-1.08-1.09v-.27h.28c.38-.05.45-.21.45-.9v-2.4c0-.69-.07-.85-.45-.9h-.28v-.27h1.08 1.09v.27h-.28c-.38 0-.45.21-.45.9v2.39c0 .69.07.85.45.9h.28z"/><path d="m73.25 126.05h-.19a.85.85 0 0 0 -.64.46l-1.35 2v.84c0 .68.08.86.47.9h.32v.27h-1.14-1.15v-.27h.32c.39 0 .47-.22.47-.9v-.76l-1.4-2c-.28-.38-.44-.5-.67-.54h-.19v-.27h.92 1.23v.27h-.28c-.22 0-.26.12-.26.23a.69.69 0 0 0 .15.36l1 1.49.84-1.25a1.15 1.15 0 0 0 .23-.54c0-.16-.11-.27-.32-.29h-.26v-.27h1 .89z"/><path d="m79.15 130.57h-.89-1.08v-.27h.25c.21 0 .31-.1.31-.25a1.2 1.2 0 0 0 -.12-.46l-.27-.71h-1.75l-.21.52a1.49 1.49 0 0 0 -.12.56c0 .22.12.32.33.34h.23v.27h-.9-.84v-.27h.18c.28 0 .4-.17.64-.77l1.35-3.41.44-.44h.13l1.51 3.9c.21.57.3.66.62.71h.19zm-1.94-2.06-.74-1.88-.74 1.88z"/><path d="m87 130.57h-1-1.08v-.27h.26c.4 0 .5-.22.47-.9l-.1-2.63-1.69 3.86h-.24l-1.62-3.89-.11 2.63c0 .68.07.86.47.9h.26v.27h-.93-.9v-.27h.26c.33 0 .39-.2.42-.9l.1-2.42c0-.57-.1-.76-.42-.84l-.28-.06v-.27h.75.74l1.61 3.79 1.63-3.79h.74.65v.27h-.26c-.33 0-.46.22-.43.9l.1 2.39c0 .71.08.86.42.9h.26z"/><path d="m93.7 130.57h-.89-1.07v-.27h.24c.21 0 .31-.1.31-.25a1.16 1.16 0 0 0 -.11-.46l-.28-.71h-1.75l-.2.52a1.32 1.32 0 0 0 -.12.56.3.3 0 0 0 .32.34h.24v.27h-.9-.85v-.27h.18c.29 0 .41-.17.64-.77l1.36-3.41.44-.44h.12l1.51 3.9c.22.57.3.66.62.71h.19zm-1.94-2.06-.76-1.88-.74 1.88z"/><path d="m104.46 126.82h-.24l-.1-.19c-.24-.48-.4-.53-1.05-.53h-.18a2.06 2.06 0 0 0 -.65.08v1.82h.44c.65 0 .81-.1.85-.47v-.29h.25v.92s0 .68 0 .83h-.25v-.26c0-.33-.21-.39-.85-.39h-.44v1.06c0 .67.09.86.48.9h.32v.27h-1.14-1v-.27h.26c.33 0 .41-.19.41-.9v-2.4c0-.71-.08-.86-.41-.9h-.26v-.27h1.45 2z"/><path d="m111.38 126.05h-.26c-.34 0-.41.18-.41.9v1.93c0 1.07-.72 1.73-2 1.73s-2-.62-2-1.66v-2c0-.7-.07-.86-.41-.9h-.26v-.27h1 1.11v.27h-.29c-.4 0-.47.22-.47.9v1.82a1.25 1.25 0 0 0 1.41 1.41c.87 0 1.44-.42 1.44-1.21v-2c0-.68-.08-.85-.47-.9h-.29v-.27h1 .9z"/><path d="m117.78 130.55a2.38 2.38 0 0 1 -.49 0 1.43 1.43 0 0 1 -1.38-.79l-.91-1.36h-.56v.92c0 .69.07.85.47.9h.29v.27h-1.11-1v-.27h.26c.33 0 .41-.19.41-.9v-2.32c0-.71-.08-.86-.41-.9h-.26v-.27h1 1.11c1.08 0 1.72.44 1.72 1.23a1.41 1.41 0 0 1 -1.18 1.32l.89 1.29c.4.58.64.71 1.12.67zm-1.65-3.45a.91.91 0 0 0 -1-1 1.77 1.77 0 0 0 -.67.1v2h.54c.81-.03 1.13-.44 1.13-1.1z"/><path d="m124.58 126.05h-.26c-.33 0-.41.18-.41.9v3.65h-.24l-3.2-3.77v2.51c0 .68.08.85.48.9h.28v.27h-1-.9v-.27h.26c.34 0 .41-.18.41-.9v-2.56a.71.71 0 0 0 -.68-.74h-.12v-.27h.66a5.74 5.74 0 0 0 .6 0l3 3.51v-2.28c0-.68-.08-.85-.48-.9h-.28v-.27h1 .89z"/><path d="m128.43 130.57h-1.08-1.09v-.27h.28c.37-.05.45-.21.45-.9v-2.4c0-.69-.08-.85-.45-.9h-.28v-.27h1.08 1.09v.27h-.28c-.38 0-.45.21-.45.9v2.39c0 .69.07.85.45.9h.28z"/><path d="m134.88 125.64-.1 1.26h-.26l-.06-.27c-.11-.46-.25-.52-.92-.52h-.73v3.26c0 .68.08.86.47.9h.33v.27h-1.15-1.15v-.27h.32c.39 0 .48-.22.48-.9v-3.26h-.68c-.66 0-.83.06-1 .52l-.11.27h-.26l.1-1.26h.21c.19.14.29.16 2.1.16s2 0 2.22-.16z"/><path d="m141.84 126.05h-.26c-.33 0-.41.18-.41.9v1.93c0 1.07-.72 1.73-2 1.73s-2-.62-2-1.66v-2c0-.7-.08-.86-.42-.9h-.25v-.27h1 1.11v.27h-.29c-.39 0-.47.22-.47.9v1.82a1.25 1.25 0 0 0 1.41 1.41c.87 0 1.44-.42 1.44-1.21v-2c0-.68-.07-.85-.47-.9h-.29v-.27h1 .9z"/><path d="m148.24 130.55a2.38 2.38 0 0 1 -.49 0 1.42 1.42 0 0 1 -1.37-.79l-.92-1.36h-.56v.92c0 .69.07.85.47.9h.29v.27h-1.1-1v-.27h.26c.34 0 .41-.19.41-.9v-2.32c0-.71-.08-.86-.41-.9h-.26v-.27h1 1.11c1.07 0 1.71.44 1.71 1.23a1.41 1.41 0 0 1 -1.18 1.32l.9 1.29c.39.58.63.71 1.11.67zm-1.65-3.45a.91.91 0 0 0 -1-1 1.85 1.85 0 0 0 -.67.1v2h.55c.8-.03 1.12-.44 1.12-1.1z"/><path d="m153.65 129.53-.15 1h-2.25-1.45v-.27h.26c.34 0 .41-.19.41-.9v-2.36c0-.71-.08-.86-.41-.9h-.26v-.27h1.45 2.07l.15 1h-.24l-.1-.19c-.25-.47-.4-.53-1-.53h-.26a2 2 0 0 0 -.64.08v1.74h.46c.67 0 .84-.08.89-.46v-.29h.25v.91s0 .68 0 .83h-.25v-.26c0-.34-.24-.39-.89-.39h-.46v1.11c0 .74.12.88.76.88h.31c.66 0 .81 0 1.05-.53l.1-.19z"/><path d="m11 99.34a16.79 16.79 0 0 0 6.89-3.87c.63.17.91.13 1-.15s-.89-1.22-1.59-1.57c-.27-.1-.42-.1-.55.09a16.44 16.44 0 0 1 -6.06 4.8c-.56.29-.35.85.31.7z"/><path d="m19.25 104.51a.48.48 0 0 0 -.61.09c-2.8 3.62-6.23 5.51-10.75 6.78-.65.15-.57.82.11.78a19.24 19.24 0 0 0 11.62-5.91c.74.24 1.24.26 1.35-.11s-.97-1.22-1.72-1.63z"/><path d="m6 99.29h3c.58 0 1-.15 1-.47 0-.48-1.35-1.74-1.76-1.74s-.81.69-1.24 1.35h-1c0-1.61 0-3.22 0-3.94.68-.13 1.11-.37 1.11-.74s-1.13-.65-2.52-.65a.25.25 0 0 0 -.28.31 41.45 41.45 0 0 1 .28 5h-3.59c-.28 0-.47.1-.47.43s.19.43.47.43h3.56a19 19 0 0 1 -4.36 7.78c-.48.59 0 1 .56.59a14.77 14.77 0 0 0 3.91-4.48c0 1.85-.19 7.82-.19 8.76a.59.59 0 0 0 .65.65c.69 0 1-.28 1-.78 0-.91-.09-7.76-.09-9.28z"/><path d="m17.34 99.27a17.18 17.18 0 0 1 -6.61 5.07c-.58.3-.39.86.26.73a18.73 18.73 0 0 0 7.52-4.15c.61.18.91.13 1-.15s-1-1.21-1.61-1.56c-.28-.13-.41-.13-.56.06z"/><path d="m8.6 105a.89.89 0 0 0 .92-1c0-1-1.11-1.85-2.33-2.33-.56-.19-.8.22-.52.63s.59.94.83 1.42c.32.7.56 1.28 1.1 1.28z"/><path d="m47.16 98.21a.26.26 0 0 0 -.28.32 68.44 68.44 0 0 1 .22 6.91c0 .68 0 2.26-.09 3.7h-5.91v-14.14c.72-.15 1.22-.35 1.22-.85s-2.3-.67-2.69-.67c-.22 0-.35.11-.33.33.26 2 .17 12.1.11 15.34h-5.89c0-1.52 0-3.24 0-3.89s0-4.5 0-5.59c.69-.13 1.17-.37 1.17-.76 0-.58-1.41-.69-2.69-.69a.26.26 0 0 0 -.29.32 66.64 66.64 0 0 1 .22 7c0 1.21-.15 5.56-.15 6.34a.6.6 0 0 0 .67.63c.72 0 1.11-.24 1.11-.74v-1.71h13.44v1.73a.59.59 0 0 0 .67.66c.72 0 1.11-.22 1.11-.72 0-.7-.07-5.32-.07-6.45 0-.66 0-4.48 0-5.57.69-.13 1.17-.37 1.17-.76-.02-.63-1.43-.74-2.72-.74z"/><path d="m79.88 109a10.07 10.07 0 0 1 -5.88-3.84 17.52 17.52 0 0 0 4.38-2.5c.61.24 1.09.24 1.18-.13s-1-1.28-1.63-1.65a.38.38 0 0 0 -.52.13 16.05 16.05 0 0 1 -3.89 3.46 15.44 15.44 0 0 1 -1.68-4c.16-.06.27-.13.29-.24a.32.32 0 0 0 -.13-.23h3.63c.67 0 1.09-.17 1.09-.5 0-.52-1.46-1.87-1.89-1.87s-.92.81-1.37 1.5h-9.46c-.28 0-.48.11-.48.44s.2.43.48.43h4.89a28 28 0 0 1 -7.08 3.61c-.63.22-.54.89.19.76a26.28 26.28 0 0 0 5.74-2.07 6.73 6.73 0 0 1 2.5 4.61 4.94 4.94 0 0 0 -1.15-1c-.18-.13-.31-.06-.46.11a20.4 20.4 0 0 1 -7.8 5.24c-.61.26-.39.89.22.72a22.73 22.73 0 0 0 8.32-4.46c.43.2.76.24.93.13v.46c0 2.28-.66 2.82-1.39 2.84a15.08 15.08 0 0 1 -2-.15c-.61 0-.67.55-.11.72a2.39 2.39 0 0 1 1.15.67 1 1 0 0 0 .92.48c1.32 0 2.86-1 2.8-4.41s-1.24-5.17-3.07-6.45c.7-.39 1.37-.81 2-1.24h.36c.9 4.93 3.2 8.62 6.89 10 .59.24.78.09 1-.26a1.91 1.91 0 0 1 .94-.65c.59-.13.78-.48.09-.66z"/><path d="m61.58 100.26c1.13 0 2-1.11 2.11-2.61v-.56h13.58c-.2.5-.46 1-.65 1.41s.08.81.56.52 1.15-.76 1.74-1.19c.56-.07 1.17-.07 1.19-.55s-1.45-1.89-1.86-1.89c-.24 0-.7.44-1 .83h-13.65a6.9 6.9 0 0 0 -.22-.87.39.39 0 0 0 -.78.09 4 4 0 0 1 -.3 1.82c-.55 1.11-1.59 1.24-1.59 2.13a.83.83 0 0 0 .87.87z"/><path d="m61.84 108a19.4 19.4 0 0 0 6.41-3c.65.28 1 .23 1.13-.07s-.61-1.06-1.28-1.48a.38.38 0 0 0 -.52.09 16.1 16.1 0 0 1 -6 3.74c-.58.25-.35.84.26.72z"/><path d="m94.69 106a.54.54 0 0 0 .61.61c.67 0 1-.24 1-.71v-.7h7.23v.37a.65.65 0 0 0 .68.74c.6 0 1-.17 1-.85 0-1.17-.17-7.76-.06-10 .33-.15.63-.35.63-.59 0-.45-1.24-1.37-1.65-1.37-.22 0-.61.44-.89.85h-6.42a5.36 5.36 0 0 0 -1.89-.78c-.2 0-.35.13-.33.3.29 2.56.09 10.07.09 12.13zm8.84-1.67h-7.23v-2.5h7.27zm-7.21-9a2 2 0 0 0 .37-.09h6.89v2.43h-7.3c0-.94.02-1.9.04-2.35zm-.07 4.76v-1.56h7.33v2.39h-7.33z"/><path d="m106.42 109.75a10.16 10.16 0 0 0 -2.76-.48c-.52 0-.58.52-.13.69a12.27 12.27 0 0 1 2.07 1.09 10.55 10.55 0 0 1 1.41 1.13 1.12 1.12 0 0 0 1.26.3c.48-.24.65-.87.17-1.52a4 4 0 0 0 -2.02-1.21z"/><path d="m108.07 105.66c-.34 0-1 .85-1.47 1.57h-15.91c-.28 0-.48.1-.48.43s.2.43.48.43h18.23c.89 0 1.26-.21 1.26-.52 0-.57-1.65-1.91-2.11-1.91z"/><path d="m96.34 109a.38.38 0 0 0 -.5.09 13.88 13.88 0 0 1 -5 2.8c-.55.24-.35.78.19.69a16.19 16.19 0 0 0 5.76-1.84c.57.15 1.2.15 1.24-.2s-.91-1.12-1.69-1.54z"/><path d="m139.7 110.72a13.5 13.5 0 0 1 -5.93-1.58 12 12 0 0 0 3.06-1.35c.52.2 1.13.33 1.24 0s-.74-1.09-1.43-1.5h2.33c.8 0 1.06-.16 1.06-.44 0-.48-1.39-1.63-1.78-1.63s-.78.63-1.17 1.2h-5.89v-.44c.59-.15 1-.3 1-.69s-1-.5-1.67-.55a1.08 1.08 0 0 0 .43-.91c0-.82-.06-1.11 0-1.52.46-.15.87-.37.87-.65s-1.3-1.57-1.8-1.52c-.16 0-.48.41-.77.8h-1.69v-1.51h4c.71 0 1-.11 1-.4s-1.26-1.49-1.63-1.49-.63.52-1 1h-2.32v-1.54h3.41c.67 0 1-.11 1-.4s-1.28-1.5-1.63-1.5-.65.53-1 1h-1.74v-.85c.68-.11 1.09-.33 1.09-.65 0-.52-1.41-.63-2.37-.63a.25.25 0 0 0 -.28.3c.06.44.11 1.11.13 1.83h-2.31c.11-.2.2-.39.29-.57.69 0 1-.15 1-.43s-1-.92-1.74-1.11a.34.34 0 0 0 -.44.28 8.27 8.27 0 0 1 -1.54 3.5c-.28.52.11.87.61.48a5.75 5.75 0 0 0 1.12-1.25h2.89v1.52h-5.39c-.28 0-.48.1-.48.43s.2.44.48.44h5.39v.36 1.09h-1.76a5.6 5.6 0 0 0 -1.8-.87.25.25 0 0 0 -.35.28 39.89 39.89 0 0 1 .09 4.37.53.53 0 0 0 .58.59c.63 0 1-.2 1-.65s0-1.26 0-1.52 0-1 0-1.33h2.22c0 1.35-.09 2.87-.09 3.24a.53.53 0 0 0 .59.58c.61 0 1-.17 1-.65s0-1.87 0-3.17h2.09v.41a5.92 5.92 0 0 1 0 1.13c0 .16-.08.33-.34.33h-.85c-.41 0-.46.46 0 .61a1.58 1.58 0 0 1 .67.43c.24.24.31.33.61.33h.09c0 .43.06.93.06 1.37h-9.08c-.28 0-.48.11-.48.43s.2.44.48.44h7.71a25.86 25.86 0 0 1 -7.91 3.28c-.63.19-.56.89.18.76a25.21 25.21 0 0 0 6-1.61v1.67c-.87.11-1.8.18-2.8.24-.18 0-.26.07-.26.26.06 1.18.32 2 .78 2s.56-.41.69-.91a29.1 29.1 0 0 0 6.56-1.69c.79-.33.61-.94-.23-.76s-2.11.45-3.39.65v-1.39c.45-.09.67-.22.67-.46s-.15-.28-.35-.41c.68-.35 1.37-.74 2-1.17a9.43 9.43 0 0 0 7.63 5.62c.61.11.72 0 1-.39a1.72 1.72 0 0 1 .85-.58c.33-.1.37-.53-.26-.58zm-8.47-4.12c.41 0 .67-.11.71-.31v-.06h4.28s-.06.06-.1.1a9 9 0 0 1 -3.2 2.22 7.13 7.13 0 0 1 -1.69-1.95z"/><path d="m133.16 98c0 .45-.06 3.47-.06 3.8a.5.5 0 0 0 .56.56c.61 0 1-.13 1-.6s0-3.09 0-3.39c0-.48 0-2.72 0-3.26.54-.07.8-.26.8-.5 0-.48-1.8-.52-2.11-.52a.25.25 0 0 0 -.28.3c.11.93.09 2.97.09 3.61z"/><path d="m136.25 102.79c-.18 0-.72 0-.94-.06-.43 0-.52.48 0 .71 1 .46.87 1 1.52 1 1 0 1.42-.7 1.42-1.63 0-2.74-.05-6.41 0-8.22.48-.13 1.13-.26 1.13-.69s-1.1-.67-2.39-.67c-.28 0-.32.15-.3.43.13.61.17 4.52.19 5.52v2.93c-.07.55-.26.66-.63.68z"/><path d="m154.35 98.6a37 37 0 0 0 1.85-3.89c.63.07 1.06 0 1.06-.41s-1.47-1.15-2.26-1.3c-.23 0-.34.09-.39.33a24.63 24.63 0 0 1 -4.91 10.1c-.39.55.13 1 .59.5a19.27 19.27 0 0 0 2.56-3c.09 3.43 0 9.69 0 11.06a.56.56 0 0 0 .61.63c.69 0 1-.27 1-.74v-6.59c0-.65 0-4.28.06-5.39.5-.06.87-.21.89-.52s-.56-.56-1.06-.78z"/><path d="m168 105.26c-.33 0-.87.74-1.3 1.39h-3.54c0-.51 0-.93 0-1.18s0-1.38 0-2.48h5.32c.74 0 1.16-.18 1.16-.48 0-.5-1.5-1.78-1.94-1.78s-.87.74-1.3 1.39h-3.24c0-.81 0-1.55 0-2 .7-.13 1.17-.37 1.17-.76 0-.58-1.41-.69-2.69-.69-.2 0-.3.11-.28.32.07.47.1.94.13 1.41.08 1.35.09 2.7.09 4 0 1.63-.05 3.27-.11 4.89 0 .86-.05 1.73-.05 2.6a.6.6 0 0 0 .68.66c.71 0 1.1-.22 1.1-.72s0-2.64 0-4.39h5.61c.74 0 1.15-.17 1.15-.47-.04-.42-1.54-1.71-1.96-1.71z"/><path d="m170.21 97.75c0-.52-1.52-1.85-2-1.85s-.91.81-1.37 1.48h-6.78a30.07 30.07 0 0 0 1.28-2.89c.57 0 .94-.15.91-.45s-1.49-.89-2.21-1c-.26 0-.35.06-.39.3a22.79 22.79 0 0 1 -4.11 9c-.35.52.15.87.61.43a18 18 0 0 0 3.45-4.56h9.41c.79.04 1.2-.15 1.2-.46z"/><path d="m180.4 95.93h8.43c.65 0 1.11-.18 1.11-.5 0-.52-1.46-1.87-1.91-1.89s-.91.82-1.37 1.52h-6.26c-.28 0-.48.11-.48.43s.2.44.48.44z"/><path d="m195.65 102.18c-.2 0-.31.11-.29.3.13 1 .11 5.16.11 5.74s-.06 3.48-.06 3.81a.5.5 0 0 0 .56.56c.61 0 1-.13 1-.61s0-3.08 0-3.39c0-.47 0-4.85 0-5.39.54-.07.8-.26.8-.5-.02-.48-1.77-.52-2.12-.52z"/><path d="m198.13 98.88c-.32 0-.89.78-1.35 1.48h-4.65c.05-1.46.05-2.89.05-4.22a30.76 30.76 0 0 0 5.89-1.1c.8.41 1.23.15 1-.33a4 4 0 0 0 -1-1.15c-.43-.37-.54-.37-1-.09a18.85 18.85 0 0 1 -4.56 1.74 6.43 6.43 0 0 0 -1.72-.83c-.28 0-.41.07-.37.4a66.87 66.87 0 0 1 .18 6.84c-.11 5.32-1.68 7.71-4.91 10.08-.57.44-.16 1 .41.67 4.93-2.47 5.82-6.45 6-10l.06-1.15h6.8c.63 0 1.09-.18 1.09-.5-.05-.49-1.48-1.84-1.92-1.84z"/><path d="m187 105.9a.65.65 0 0 0 .67.74c.59 0 .94-.15.94-.83s-.07-4.19 0-5.76c.4-.15.74-.34.74-.63 0-.47-1.26-1.41-1.71-1.41-.24 0-.61.42-.92.83h-3.1a5.18 5.18 0 0 0 -1.91-1c-.29 0-.44.08-.42.41.11 1.69.18 3.67.13 5.39 0 3.63-.65 6.15-1.95 8.25-.44.59.13 1 .65.53 1.85-1.89 2.61-4.68 2.82-7.48h4.06zm-4-1.85v-.13c0-1.67.09-2.84 0-4.21h4v4.34z"/><path d="m69.22 94.45c.32.69.56 1.24 1.11 1.24a.88.88 0 0 0 .91-1c0-1-1.11-1.84-2.33-2.32-.56-.2-.8.21-.52.63s.61 1 .83 1.45z"/></g></svg>