<svg viewBox="0 0 350 228.64" xmlns="http://www.w3.org/2000/svg"><g fill="#fff"><path d="m167.38 0h-45.37v5.12l-5.08-5.12v33.63h5.12l-5.12 5.08v72.34l5.08-5.12v5.12h45.37v-5.12l5.08 5.12v-72.34l-5.13-5.08h5.13v-33.63l-5.08 5.12z"/><path d="m177.55 0h55.52v13.14h-55.52z"/><path d="m177.55 18.22h55.52v33.63h-55.52z"/><path d="m177.55 56.93h55.52v54.12h-55.52z"/><path d="m86.67 226.21c0 1.49-1.3 2.41-3.08 2.41a5.4 5.4 0 0 1 -2.31-.41l-.16-1.74h.48l.13.35a1.76 1.76 0 0 0 1.93 1.26c1.11 0 1.85-.54 1.85-1.49s-.45-1.33-1.73-1.76c-1.61-.54-2.47-1.1-2.47-2.54s1.23-2.29 2.79-2.29a4.78 4.78 0 0 1 2.16.4l.16 1.74h-.49l-.13-.35a1.63 1.63 0 0 0 -1.8-1.26 1.39 1.39 0 0 0 -1.56 1.4c0 .91.46 1.24 1.59 1.63 1.97.67 2.64 1.26 2.64 2.65z"/><path d="m98.86 220.58-.45.06c-.58.08-.72.32-.72 1.58v3.37c0 1.87-1.26 3-3.46 3s-3.51-1.08-3.51-2.91v-3.5c0-1.21-.13-1.49-.72-1.57l-.45-.06v-.46h1.79 1.94v.46l-.5.06c-.69.09-.83.38-.83 1.57v3.19a2.19 2.19 0 0 0 2.47 2.47c1.53 0 2.53-.74 2.53-2.12v-3.54c0-1.19-.14-1.48-.83-1.57l-.5-.06v-.46h1.67 1.57z"/><path d="m109.82 225.34h-.38c-.59.08-.73.4-.73 1.24a.9.9 0 0 0 .73 1v.42a8.13 8.13 0 0 1 -3.23.65c-2.72 0-4.75-1.46-4.75-4.33 0-2.68 2.05-4.34 4.71-4.34a5.32 5.32 0 0 1 2.71.65l.16 1.81h-.45l-.16-.36a2.27 2.27 0 0 0 -2.44-1.56c-1.91 0-3.1 1.49-3.1 3.63 0 2.62 1.21 4 3.43 4 .94 0 1.28-.29 1.28-1.13v-.16c0-1-.15-1.33-.83-1.42l-.5-.06v-.47h1.9 1.65z"/><path d="m116.41 228.49h-1.89-1.91v-.49l.49-.06c.66-.09.8-.37.8-1.56v-4.2c0-1.2-.14-1.48-.8-1.57l-.49-.06v-.46h1.9 1.9v.46l-.49.06c-.66.09-.79.37-.79 1.57v4.2c0 1.19.13 1.47.79 1.56l.49.06z"/><path d="m128.19 220.58h-.33a1.48 1.48 0 0 0 -1.12.8l-2.37 3.51v1.48c0 1.18.15 1.49.83 1.56l.56.06v.46h-2-2v-.45l.56-.06c.68-.07.83-.38.83-1.56v-1.35l-2.47-3.48c-.47-.67-.77-.88-1.17-.94h-.33v-.47h1.61 2.15v.46l-.49.06c-.38.05-.45.21-.45.39a1.22 1.22 0 0 0 .27.65l1.77 2.6 1.46-2.18a2.12 2.12 0 0 0 .41-.94c0-.3-.2-.49-.56-.53h-.46v-.46h1.75 1.56z"/><path d="m138.5 228.49h-1.55-1.88v-.49l.43-.05c.37 0 .54-.18.54-.45a2 2 0 0 0 -.2-.79l-.49-1.25h-3l-.36.92a2.32 2.32 0 0 0 -.21 1c0 .39.19.56.57.61l.41.05v.46h-1.58-1.48v-.5h.32c.5-.06.71-.29 1.12-1.34l2.37-6 .77-.76h.22l2.64 6.83c.38 1 .52 1.14 1.08 1.23l.33.05zm-3.39-3.6-1.28-3.28-1.3 3.28z"/><path d="m152.31 228.49h-1.82-1.89v-.49l.47-.05c.69-.07.86-.38.81-1.56l-.17-4.61-3 6.75h-.42l-2.9-6.75-.2 4.61c0 1.18.13 1.49.83 1.56l.45.05v.47h-1.62-1.58v-.47l.46-.06c.58-.07.68-.34.73-1.58l.18-4.22c0-1-.18-1.34-.74-1.48l-.48-.11v-.46h1.31 1.29l2.82 6.63 2.84-6.63h1.31 1.14v.46l-.45.06c-.59.08-.82.38-.77 1.57l.18 4.18c.05 1.25.15 1.51.73 1.58l.45.06z"/><path d="m164 228.49h-1.55-1.88v-.49h.43c.37 0 .54-.18.54-.45a2 2 0 0 0 -.2-.79l-.49-1.25h-3l-.36.92a2.32 2.32 0 0 0 -.21 1c0 .39.19.56.57.61l.4.05v.46h-1.57-1.48v-.55h.32c.5-.06.71-.29 1.12-1.34l2.37-6 .77-.76h.22l2.64 6.83c.38 1 .52 1.14 1.08 1.23l.33.05zm-3.39-3.6-1.28-3.28-1.3 3.28z"/><path d="m182.81 221.94h-.43l-.17-.34c-.41-.83-.71-.93-1.84-.93h-.32a3.67 3.67 0 0 0 -1.12.14v3.13h.77c1.13 0 1.4-.16 1.49-.82l.06-.5h.44v1.6s0 1.2 0 1.47h-.44l-.06-.47c-.08-.57-.38-.68-1.49-.68h-.77v1.87c0 1.17.14 1.49.83 1.56l.56.06v.46h-2-1.81v-.49h.49c.59-.07.72-.33.72-1.58v-4.18c0-1.24-.14-1.49-.72-1.57l-.45-.06v-.46h2.54 3.48z"/><path d="m194.91 220.58-.45.06c-.59.08-.72.32-.72 1.58v3.37c0 1.87-1.26 3-3.47 3s-3.51-1.08-3.51-2.91v-3.5c0-1.21-.13-1.49-.72-1.57l-.45-.06v-.46h1.8 1.94v.46l-.5.06c-.7.09-.83.38-.83 1.57v3.19a2.19 2.19 0 0 0 2.46 2.47c1.53 0 2.53-.74 2.53-2.12v-3.54c0-1.19-.13-1.48-.83-1.57l-.5-.06v-.46h1.67 1.58z"/><path d="m206.11 228.47a4.4 4.4 0 0 1 -.86.07 2.49 2.49 0 0 1 -2.4-1.38l-1.6-2.37h-1v1.6c0 1.21.14 1.49.83 1.58l.5.06v.46h-1.93-1.8v-.49l.45-.06c.58-.07.72-.33.72-1.58v-4.18c0-1.24-.15-1.49-.72-1.57l-.45-.06v-.46h1.8 1.94c1.88 0 3 .77 3 2.16a2.44 2.44 0 0 1 -2.07 2.3l1.57 2.27c.69 1 1.11 1.23 1.95 1.17zm-2.88-6a1.6 1.6 0 0 0 -1.8-1.81 3.07 3.07 0 0 0 -1.17.18v3.51h1c1.41-.04 1.97-.76 1.97-1.92z"/><path d="m218 220.58-.45.06c-.59.08-.72.32-.72 1.58v6.38h-.42l-5.6-6.6v4.41c0 1.18.13 1.47.83 1.56l.5.06v.46h-1.7-1.57v-.49l.45-.06c.58-.07.72-.32.72-1.58v-4.46a1.26 1.26 0 0 0 -1.2-1.31h-.21v-.46h1.16 1.05l5.23 6.14v-4c0-1.19-.14-1.48-.83-1.57l-.5-.06v-.46h1.69 1.57z"/><path d="m224.75 228.49h-1.89-1.91v-.49l.49-.06c.66-.09.79-.37.79-1.56v-4.2c0-1.2-.13-1.48-.79-1.57l-.49-.06v-.46h1.89 1.91v.46l-.49.06c-.66.09-.79.37-.79 1.57v4.2c0 1.19.13 1.47.79 1.56l.49.06z"/><path d="m236 219.87-.18 2.21h-.45l-.11-.47c-.18-.81-.44-.92-1.6-.92h-1.28v5.72c0 1.18.14 1.49.83 1.56l.56.06v.46h-2-2v-.49l.56-.06c.69-.07.83-.38.83-1.56v-5.72h-1.16c-1.16 0-1.45.1-1.77.92l-.18.47h-.45l.17-2.21h.36c.33.25.5.29 3.68.29s3.49 0 3.88-.29z"/><path d="m248.22 220.58-.45.06c-.59.08-.72.32-.72 1.58v3.37c0 1.87-1.26 3-3.47 3s-3.51-1.08-3.51-2.91v-3.5c0-1.21-.13-1.49-.72-1.57l-.45-.06v-.46h1.8 1.94v.46l-.5.06c-.7.09-.83.38-.83 1.57v3.19a2.19 2.19 0 0 0 2.46 2.47c1.53 0 2.53-.74 2.53-2.12v-3.54c0-1.19-.13-1.48-.83-1.57l-.5-.06v-.46h1.67 1.58z"/><path d="m259.42 228.47a4.36 4.36 0 0 1 -.85.07 2.49 2.49 0 0 1 -2.41-1.38l-1.6-2.37h-1v1.6c0 1.21.14 1.49.83 1.58l.5.06v.46h-1.93-1.8v-.49l.45-.06c.58-.07.72-.33.72-1.58v-4.18c0-1.24-.15-1.49-.72-1.57l-.45-.06v-.46h1.8 1.94c1.88 0 3 .77 3 2.16a2.44 2.44 0 0 1 -2.07 2.3l1.57 2.27c.69 1 1.11 1.23 1.95 1.17zm-2.88-6a1.6 1.6 0 0 0 -1.8-1.81 3.07 3.07 0 0 0 -1.17.18v3.51h1c1.43-.04 1.97-.76 1.97-1.92z"/><path d="m268.88 226.67-.26 1.81h-3.93-2.54v-.48l.46-.06c.58-.07.72-.33.72-1.58v-4.18c0-1.24-.15-1.49-.72-1.57l-.46-.06v-.46h2.54 3.63l.26 1.81h-.42l-.18-.34c-.44-.82-.7-.93-1.85-.93h-.45a3.67 3.67 0 0 0 -1.12.14v3h.8c1.18 0 1.48-.13 1.57-.8l.06-.5h.43v1.59s0 1.19 0 1.46h-.42l-.06-.46c-.08-.59-.42-.69-1.57-.69h-.8v1.94c0 1.31.21 1.55 1.33 1.55h.55c1.15 0 1.41-.07 1.84-.92l.17-.35z"/><path d="m19.24 173.84c5.06-1.1 9.54-4.6 12.05-6.77 1.11.31 1.6.23 1.79-.26.23-.69-1.63-2.13-2.81-2.74-.46-.19-.73-.19-.95.15-2.13 3-5.94 6.05-10.61 8.4-.99.5-.61 1.49.53 1.22z"/><path d="m33.69 182.89a.86.86 0 0 0 -1.07.15c-4.9 6.35-10.91 9.66-18.82 11.87-1.14.26-1 1.44.19 1.37 9.17-1.18 15.33-5.33 20.35-10.35 1.29.42 2.16.46 2.35-.19s-1.63-2.13-3-2.85z"/><path d="m10.57 173.77h5.21c1 0 1.75-.27 1.75-.84 0-.84-2.36-3-3.08-3-.49 0-1.41 1.21-2.17 2.35h-1.71c0-2.81 0-5.62.08-6.88 1.18-.23 1.94-.64 1.94-1.29 0-.91-2-1.14-4.41-1.14-.35 0-.54.19-.5.53a70.91 70.91 0 0 1 .5 8.78h-6.35c-.5 0-.84.19-.84.76s.34.77.84.77h6.17a33.33 33.33 0 0 1 -7.66 13.53c-.83 1 0 1.75 1 1a26.06 26.06 0 0 0 6.85-7.84c0 3.24-.35 13.69-.35 15.33a1 1 0 0 0 1.16 1.17c1.22 0 1.75-.5 1.75-1.37 0-1.6-.15-13.58-.15-16.24z"/><path d="m30.34 173.73c-2.24 3.23-6.46 6.42-11.56 8.86-1 .53-.68 1.52.46 1.29 5.51-1.22 10.49-5 13.16-7.26 1.06.3 1.59.23 1.75-.27.26-.68-1.68-2.13-2.82-2.74-.49-.23-.72-.23-.99.12z"/><path d="m15.06 183.69a1.53 1.53 0 0 0 1.59-1.69c0-1.71-1.93-3.24-4.06-4.07-1-.34-1.41.38-.92 1.1s1 1.64 1.45 2.47c.57 1.24.99 2.19 1.94 2.19z"/><path d="m82.54 171.86c-.34 0-.53.19-.5.57.46 2.86.38 10.84.38 12.1s-.07 3.95-.15 6.46h-10.34v-24.75c1.25-.27 2.13-.61 2.13-1.49 0-1.06-4-1.18-4.72-1.18-.38 0-.6.2-.57.58.46 3.49.31 21.17.19 26.84h-10.3c0-2.66-.08-5.67-.08-6.81s0-7.87 0-9.77c1.22-.23 2.05-.64 2.05-1.33 0-1-2.47-1.22-4.71-1.22-.34 0-.53.19-.49.57.45 2.93.38 10.88.38 12.17 0 2.13-.27 9.74-.27 11.1a1 1 0 0 0 1.18 1.11c1.25 0 1.94-.42 1.94-1.3v-3h23.57c0 1.45-.07 2.59-.07 3a1 1 0 0 0 1.18 1.14c1.25 0 1.94-.38 1.94-1.25 0-1.22-.12-9.32-.12-11.29 0-1.15 0-7.84 0-9.74 1.22-.23 2-.64 2-1.33.09-.99-2.38-1.18-4.62-1.18z"/><path d="m139.78 190.76a17.59 17.59 0 0 1 -10.34-6.76 30.79 30.79 0 0 0 7.68-4.37c1.07.42 1.9.42 2-.23s-1.71-2.24-2.85-2.89a.65.65 0 0 0 -.91.23 27.43 27.43 0 0 1 -6.81 6 26.45 26.45 0 0 1 -2.92-6.92c.26-.11.45-.22.49-.41a.56.56 0 0 0 -.12-.41h6.35c1.18 0 1.9-.3 1.9-.87 0-.92-2.55-3.27-3.31-3.27-.57 0-1.6 1.4-2.39 2.62h-16.55c-.5 0-.84.19-.84.76s.34.76.84.76h8.55c-2.39 2-7.07 4.26-12.39 6.31-1.11.38-1 1.56.34 1.33a45.75 45.75 0 0 0 10-3.61 11.74 11.74 0 0 1 4.37 8.06 8.56 8.56 0 0 0 -2-1.71c-.3-.23-.53-.11-.79.19-3.27 3.88-8.25 6.92-13.65 9.16-1.07.46-.69 1.56.38 1.26a39.55 39.55 0 0 0 14.56-7.8c.76.35 1.33.42 1.63.23v.8c.08 4-1.14 4.94-2.43 5a28.65 28.65 0 0 1 -3.42-.26c-1.07 0-1.18.95-.19 1.25a4.13 4.13 0 0 1 2 1.18 1.65 1.65 0 0 0 1.6.84c2.32 0 5-1.68 4.9-7.72-.11-6.28-2.16-9-5.36-11.3q1.83-1 3.54-2.16h.65c1.55 8.63 5.58 15.09 12.05 17.49 1 .42 1.37.15 1.82-.46a3.25 3.25 0 0 1 1.64-1.14c.86-.27 1.2-.87-.02-1.18z"/><path d="m107.77 175.46c2 0 3.46-1.94 3.69-4.57v-1h23.76c-.34.87-.8 1.78-1.14 2.47-.5.87.15 1.4 1 .91s2-1.33 3-2.09c1-.12 2-.12 2.09-.95 0-1.07-2.55-3.31-3.27-3.31-.42 0-1.22.76-1.82 1.44h-23.78a14.67 14.67 0 0 0 -.38-1.52.69.69 0 0 0 -1.37.16 6.91 6.91 0 0 1 -.53 3.19c-1 1.94-2.77 2.17-2.77 3.73a1.45 1.45 0 0 0 1.52 1.54z"/><path d="m108.22 188.94a34.09 34.09 0 0 0 11.22-5.25c1.14.49 1.83.42 2-.11s-1.07-1.87-2.25-2.59a.66.66 0 0 0 -.91.15 28 28 0 0 1 -10.49 6.54c-1.01.5-.63 1.52.43 1.26z"/><path d="m165.71 185.44a.94.94 0 0 0 1.06 1.06c1.18 0 1.75-.42 1.75-1.25v-1.25h12.66v.65a1.14 1.14 0 0 0 1.18 1.29c1.06 0 1.75-.3 1.75-1.48 0-2.06-.31-13.58-.12-17.42.58-.26 1.11-.61 1.11-1 0-.8-2.17-2.4-2.89-2.4-.38 0-1.07.76-1.56 1.48h-11.22a9.25 9.25 0 0 0 -3.3-1.36c-.35 0-.61.22-.57.53.49 4.46.15 17.61.15 21.15zm15.47-2.93h-12.66v-4.37h12.74zm-12.62-15.7a3.09 3.09 0 0 0 .65-.16h12v4.26h-12.73c0-1.63.04-3.3.08-4.1zm-.12 8.32v-2.7h12.82v4.19h-12.82z"/><path d="m186.24 192.05a18.22 18.22 0 0 0 -4.83-.83c-.91 0-1 .91-.23 1.21a20.23 20.23 0 0 1 3.61 1.91 16.79 16.79 0 0 1 2.48 2 2 2 0 0 0 2.2.54c.84-.42 1.14-1.53.31-2.67a7.31 7.31 0 0 0 -3.54-2.16z"/><path d="m189.13 184.91c-.61 0-1.71 1.48-2.59 2.73h-27.83c-.49 0-.84.19-.84.76s.35.76.84.76h31.9c1.56 0 2.21-.38 2.21-.91 0-.99-2.89-3.34-3.69-3.34z"/><path d="m168.6 190.8a.71.71 0 0 0 -.88.15 23.88 23.88 0 0 1 -8.67 4.91c-1 .42-.61 1.37.35 1.21a28.14 28.14 0 0 0 10.07-3.23c1 .27 2.09.27 2.17-.34s-1.64-2.02-3.04-2.7z"/><path d="m244.48 193.77c-4.3-.35-7.72-1.18-10.38-2.78a20.65 20.65 0 0 0 5.36-2.36c.91.34 2 .57 2.17-.07s-1.3-1.9-2.51-2.63h-.08 4.07c1.4 0 1.86-.26 1.86-.76 0-.83-2.43-2.85-3.12-2.85-.49 0-1.37 1.11-2 2.09h-10.35v-.76c1-.26 1.78-.53 1.78-1.21s-1.75-.88-2.93-1a1.94 1.94 0 0 0 .77-1.6c0-1.45-.12-1.94-.08-2.66.8-.27 1.52-.65 1.52-1.14 0-.69-2.28-2.74-3.16-2.67-.26 0-.83.73-1.33 1.41h-3v-2.55h7c1.25 0 1.75-.19 1.71-.68 0-.76-2.21-2.62-2.85-2.62-.42 0-1.11.91-1.75 1.78h-4.07v-2.66h6c1.18 0 1.71-.19 1.71-.68 0-.76-2.24-2.63-2.85-2.63-.42 0-1.14.92-1.79 1.79h-3v-1.48c1.17-.19 1.9-.57 1.9-1.14 0-.92-2.47-1.11-4.15-1.11a.44.44 0 0 0 -.49.54c.11.76.19 1.94.23 3.19h-4c.19-.34.34-.68.49-1 1.22 0 1.71-.26 1.71-.76s-1.71-1.6-3-1.94a.59.59 0 0 0 -.76.5 14.28 14.28 0 0 1 -2.7 6.12c-.5.91.19 1.52 1.06.83a9.56 9.56 0 0 0 2.25-2.24h5v2.66h-9.43c-.49 0-.83.19-.83.76s.34.76.83.76h9.43v.65 1.9h-3.08a9.58 9.58 0 0 0 -3.15-1.52.44.44 0 0 0 -.61.5 68.74 68.74 0 0 1 .15 7.64.92.92 0 0 0 1 1c1.1 0 1.75-.34 1.75-1.14 0-.53 0-2.2 0-2.66s0-1.78 0-2.32h3.88c-.08 2.36-.16 5-.16 5.67a.94.94 0 0 0 1 1c1.07 0 1.67-.3 1.67-1.14 0-.64 0-3.27 0-5.55h3.65v.75a11.51 11.51 0 0 1 -.08 2 .57.57 0 0 1 -.61.57h-1.48c-.72 0-.8.8 0 1.07a2.92 2.92 0 0 1 1.18.76c.42.42.53.57 1.06.57h.11c.07.76.11 1.63.11 2.39h-15.9c-.5 0-.84.19-.84.76s.34.76.84.76h13.49c-3.53 2.48-8 4.11-13.84 5.75-1.1.34-1 1.56.31 1.33a43.76 43.76 0 0 0 10.42-2.82v2.93c-1.52.19-3.16.31-4.91.42-.3 0-.45.11-.45.46.11 2 .57 3.49 1.37 3.57.57.08 1-.72 1.21-1.6a51.73 51.73 0 0 0 11.49-3c1.36-.57 1.06-1.64-.42-1.33-1.68.38-3.69.79-5.93 1.14v-2.44c.79-.15 1.17-.38 1.17-.79 0-.23-.26-.5-.6-.73 1.18-.61 2.39-1.29 3.57-2 2.59 5.89 7.3 8.82 13.35 9.85 1.06.19 1.25 0 1.78-.69a3 3 0 0 1 1.49-1c.79-.33.87-1.09-.23-1.16zm-14.83-7.23c.72 0 1.18-.19 1.25-.53v-.12h7.49c-.07 0-.11.12-.19.19a15.88 15.88 0 0 1 -5.59 3.88 12.16 12.16 0 0 1 -2.96-3.42z"/><path d="m233 171.41c0 .8-.11 6.08-.11 6.65a.88.88 0 0 0 1 1c1.06 0 1.71-.23 1.71-1.06s0-5.4 0-5.94c0-.83 0-4.75 0-5.7.95-.11 1.4-.46 1.4-.87 0-.84-3.15-.92-3.68-.92a.44.44 0 0 0 -.5.54 63 63 0 0 1 .18 6.3z"/><path d="m238.43 179.89c-.3 0-1.25-.08-1.63-.12-.76 0-.92.84 0 1.26 1.67.8 1.52 1.82 2.66 1.82 1.67 0 2.47-1.21 2.47-2.85 0-4.79-.08-11.22 0-14.37.84-.23 2-.46 2-1.22s-1.94-1.18-4.18-1.18c-.5 0-.57.27-.54.76.23 1.07.31 7.91.35 9.66v5.13c-.14.88-.48 1.07-1.13 1.11z"/><path d="m270.12 172.55a63.64 63.64 0 0 0 3.23-6.81c1.1.12 1.86-.07 1.86-.72 0-.84-2.58-2-3.95-2.28-.42 0-.61.15-.69.57-1.06 5.93-4.41 12.24-8.59 17.68-.69.95.23 1.67 1 .87a33.62 33.62 0 0 0 4.48-5.2c.15 6-.07 17-.07 19.35a1 1 0 0 0 1.06 1.1c1.22 0 1.79-.45 1.79-1.29v-11.52c0-1.14 0-7.49.11-9.43.88-.12 1.53-.38 1.56-.91s-.91-1.03-1.79-1.41z"/><path d="m294 184.21c-.57 0-1.52 1.3-2.28 2.44h-6.19c0-.9 0-1.65 0-2.09s0-2.4 0-4.33h9.31c1.3 0 2-.31 2-.84 0-.87-2.62-3.12-3.39-3.12-.57 0-1.52 1.3-2.28 2.44h-5.65c0-1.41 0-2.71 0-3.41 1.22-.23 2.05-.64 2.05-1.33 0-1-2.47-1.22-4.71-1.22-.34 0-.53.19-.5.57a22.93 22.93 0 0 1 .24 2.47c.13 2.36.15 4.72.15 7.07 0 2.85-.08 5.72-.18 8.55-.05 1.52-.09 3-.09 4.56a1 1 0 0 0 1.18 1.14c1.25 0 1.94-.38 1.94-1.25s-.05-4.62-.09-7.68h9.83c1.29 0 2-.31 2-.84.03-.88-2.6-3.13-3.34-3.13z"/><path d="m297.87 171.07c0-.92-2.66-3.24-3.42-3.24-.57 0-1.6 1.41-2.39 2.59h-11.87c.95-1.9 1.71-3.65 2.25-5.06 1 0 1.63-.26 1.59-.8 0-.76-2.62-1.56-3.88-1.71-.45 0-.6.12-.68.53a39.75 39.75 0 0 1 -7.19 15.78c-.6.92.27 1.53 1.07.76a31.31 31.31 0 0 0 6-8h16.47c1.33.02 2.05-.32 2.05-.85z"/><path d="m315.7 167.87h14.76c1.14 0 1.94-.3 1.94-.87 0-.92-2.55-3.27-3.35-3.31-.57 0-1.6 1.44-2.4 2.66h-10.95c-.49 0-.83.19-.83.76s.34.76.83.76z"/><path d="m342.38 178.81a.44.44 0 0 0 -.49.53c.22 1.71.19 9 .19 10 0 .8-.12 6.09-.12 6.66a.89.89 0 0 0 1 1c1.07 0 1.71-.23 1.71-1.07s0-5.4 0-5.93c0-.84 0-8.49 0-9.44.95-.12 1.41-.46 1.41-.88-.01-.8-3.17-.87-3.7-.87z"/><path d="m346.73 173c-.57 0-1.56 1.37-2.36 2.59h-8.13c.07-2.55.07-5.06.07-7.38a52.9 52.9 0 0 0 10.31-1.94c1.4.73 2.16.27 1.71-.57a7.78 7.78 0 0 0 -1.75-2c-.76-.65-.95-.65-1.83-.16a32.68 32.68 0 0 1 -8 3.05 11.32 11.32 0 0 0 -3-1.45c-.49-.07-.72.12-.64.69a116.94 116.94 0 0 1 .3 12c-.19 9.32-2.93 13.5-8.59 17.65-1 .76-.27 1.67.72 1.18 8.63-4.34 10.19-11.3 10.53-17.5 0-.68.08-1.33.12-2h11.9c1.1 0 1.9-.3 1.9-.88.01-.88-2.5-3.28-3.26-3.28z"/><path d="m327.3 185.32a1.15 1.15 0 0 0 1.18 1.3c1 0 1.63-.27 1.63-1.45 0-1.37-.11-7.34 0-10.07.68-.27 1.29-.61 1.29-1.11 0-.83-2.21-2.47-3-2.47-.41 0-1.06.72-1.59 1.45h-5.44a8.8 8.8 0 0 0 -3.35-1.79c-.49-.08-.76.15-.72.72.19 3 .31 6.43.23 9.43-.08 6.35-1.14 10.76-3.42 14.45-.76 1 .23 1.75 1.14.91 3.23-3.3 4.56-8.17 4.94-13.08h7.15zm-7-3.23v-.23c.07-2.92.15-5 .07-7.37h7v7.6z"/><path d="m121.13 165.29c.57 1.21 1 2.16 1.94 2.16a1.54 1.54 0 0 0 1.6-1.67c0-1.71-1.94-3.23-4.07-4.07-1-.34-1.41.38-.92 1.11s1.03 1.63 1.45 2.47z"/></g></svg>